<svg width="32" height="32" viewBox="0 0 32 32" fill="none" xmlns="http://www.w3.org/2000/svg">
<path d="M13.648 19.7163C13.648 19.8864 13.648 20.0333 13.648 20.184C11.6381 20.184 9.63588 20.184 7.62598 20.184C7.62598 17.231 7.62598 14.278 7.62598 11.3173C9.61269 11.3173 11.5955 11.3173 13.5823 11.3173C13.5823 11.468 13.5823 11.6187 13.5823 11.7811C11.7772 11.7811 9.97988 11.7811 8.17484 11.7811C8.17484 12.9677 8.17484 14.1466 8.17484 15.3371C9.86393 15.3371 11.553 15.3371 13.2537 15.3371C13.2537 15.4955 13.2537 15.6424 13.2537 15.8048C11.5685 15.8048 9.87552 15.8048 8.17484 15.8048C8.17484 17.1151 8.17484 18.4099 8.17484 19.7163C9.99534 19.7163 11.8197 19.7163 13.648 19.7163Z" fill="#1B9AAA"/>
<path d="M14.1351 11.3135C14.3399 11.3135 14.5177 11.3058 14.6955 11.3174C14.7419 11.3212 14.796 11.3638 14.8269 11.4024C15.5459 12.3958 16.2648 13.393 16.9799 14.3863C17.1731 14.6569 17.3702 14.9275 17.5828 15.2251C19.6353 12.3185 21.8191 9.53551 24.0532 6.78735C24.03 6.82601 24.0029 6.86466 23.9797 6.90331C22.1399 9.56257 20.2962 12.2218 18.4564 14.8811C18.3056 15.0975 18.1587 15.3179 18.0041 15.5304C17.95 15.6039 17.9578 15.6503 18.008 15.7237C19.0593 17.1693 20.1107 18.6187 21.162 20.0682C21.1891 20.103 21.2123 20.1416 21.247 20.1957C21.0306 20.1957 20.8335 20.1996 20.6363 20.1919C20.5977 20.188 20.5513 20.1378 20.5242 20.0952C19.7087 18.9743 18.8931 17.8496 18.0776 16.7248C17.9152 16.5006 17.7529 16.2803 17.5828 16.0445C17.548 16.087 17.521 16.1218 17.4939 16.1605C16.5392 17.4708 15.5884 18.7772 14.6337 20.0875C14.5757 20.1648 14.5216 20.2035 14.4211 20.1996C14.2588 20.1919 14.0926 20.1957 13.9109 20.1957C13.9457 20.1416 13.9727 20.103 13.9959 20.0682C15.0511 18.6226 16.1063 17.1809 17.1654 15.7353C17.2234 15.6541 17.2272 15.6077 17.1693 15.5227C16.1914 14.1699 15.2135 12.8171 14.2394 11.4642C14.2085 11.4217 14.1776 11.3792 14.1351 11.3135Z" fill="#1B9AAA"/>
<path d="M0.703603 20.188C0.498747 20.188 0.328678 20.188 0.150879 20.188C0.150879 17.235 0.150879 14.2819 0.150879 11.3135C0.363465 11.3135 0.576051 11.3096 0.788637 11.3173C0.827289 11.3173 0.869806 11.3792 0.896863 11.4178C1.67763 12.5774 2.45454 13.7369 3.23144 14.8926C5.44234 18.1858 7.65323 21.4751 9.86413 24.7682C9.88732 24.8069 9.91051 24.8417 9.92211 24.8919C9.90278 24.8726 9.88346 24.8533 9.86413 24.8301C8.70457 23.2917 7.52955 21.7688 6.39318 20.2112C5.59308 19.1173 4.85096 17.9848 4.08179 16.8678C2.9918 15.2869 1.90181 13.7022 0.815693 12.1213C0.792502 12.0865 0.765446 12.0517 0.738389 12.0169C0.726794 12.0208 0.715198 12.0208 0.703603 12.0247C0.703603 14.7458 0.703603 17.463 0.703603 20.188Z" fill="#1B9AAA"/>
<path d="M28.2894 11.3212C28.2894 11.4758 28.2894 11.6227 28.2894 11.7811C27.2497 11.7811 26.2138 11.7811 25.1625 11.7811C25.1625 14.5873 25.1625 17.3818 25.1625 20.1841C24.977 20.1841 24.803 20.1841 24.6175 20.1841C24.6175 17.3895 24.6175 14.595 24.6175 11.7889C23.57 11.7889 22.5419 11.7889 21.4983 11.7889C21.4983 11.6265 21.4983 11.4796 21.4983 11.3212C23.7556 11.3212 26.0167 11.3212 28.2894 11.3212Z" fill="#1B9AAA"/>
<path d="M31.7875 18.1394C31.7102 18.1394 31.6407 18.1471 31.5788 18.1355C31.544 18.1278 31.4977 18.1008 31.4861 18.0698C31.3701 17.7915 30.914 17.8147 30.7749 17.9655C30.6628 18.0853 30.6821 18.2554 30.8251 18.3288C30.914 18.3752 31.0184 18.3984 31.115 18.4293C31.2464 18.4679 31.3778 18.4989 31.5054 18.5453C31.9422 18.7115 31.8648 19.2526 31.6213 19.4381C31.3469 19.6507 30.8174 19.6507 30.5507 19.4342C30.427 19.3338 30.3652 19.2101 30.3574 19.0361C30.4347 19.0361 30.512 19.0284 30.5893 19.04C30.6164 19.0439 30.6512 19.0787 30.6628 19.1057C30.7671 19.3763 31.2889 19.3917 31.4513 19.2023C31.5556 19.0787 31.5402 18.9086 31.3894 18.8351C31.2619 18.7733 31.1189 18.7424 30.9797 18.6999C30.8947 18.6728 30.8019 18.6535 30.7208 18.6226C30.3497 18.4718 30.284 18.0003 30.5893 17.7452C30.8483 17.5326 31.3392 17.5326 31.5943 17.7529C31.7102 17.8534 31.7798 17.9732 31.7875 18.1394Z" fill="#1B9AAA"/>
<path d="M29.6578 17.6407C29.7196 17.6407 29.7583 17.6407 29.8008 17.6407C29.8472 17.6407 29.8897 17.6407 29.9438 17.6407C29.9477 17.6717 29.9554 17.6987 29.9554 17.7258C29.9554 18.151 29.9593 18.5761 29.9554 19.0013C29.9477 19.4844 29.5225 19.7473 29.078 19.5424C28.8848 19.4535 28.7765 19.2719 28.792 19.0554C28.8654 19.0554 28.9389 19.0515 29.0123 19.0593C29.0394 19.0631 29.0703 19.0979 29.0819 19.125C29.1399 19.2719 29.2597 19.3453 29.4143 19.3221C29.565 19.2989 29.6539 19.2062 29.6578 19.0399C29.6655 18.6264 29.6617 18.2128 29.6617 17.8031C29.6578 17.7528 29.6578 17.7026 29.6578 17.6407Z" fill="#1B9AAA"/>
<path d="M28.4362 19.3801C28.4362 19.4922 28.3512 19.5733 28.2391 19.5733C28.127 19.5733 28.042 19.4883 28.042 19.3762C28.042 19.268 28.1309 19.1791 28.2391 19.1791C28.3473 19.1829 28.4362 19.2718 28.4362 19.3801Z" fill="#1B9AAA"/>
</svg>
