<svg width="32" height="32" viewBox="0 0 32 32" fill="none" xmlns="http://www.w3.org/2000/svg">
<g clip-path="url(#clip0_21_278)">
<path d="M16.0001 21.78C24.3606 21.78 31.1382 19.1922 31.1382 16C31.1382 12.8078 24.3606 10.22 16.0001 10.22C7.63951 10.22 0.861946 12.8078 0.861946 16C0.861946 19.1922 7.63951 21.78 16.0001 21.78Z" stroke="#1B9AAA" stroke-width="1.03214"/>
<path d="M10.9945 18.89C15.1747 26.1305 20.8046 30.7061 23.5692 29.11C26.3337 27.5139 25.186 20.3504 21.0057 13.11C16.8255 5.86954 11.1956 1.2939 8.43104 2.89C5.6665 4.48611 6.81419 11.6496 10.9945 18.89Z" stroke="#1B9AAA" stroke-width="1.03214"/>
<path d="M10.9945 13.1099C6.81419 20.3503 5.6665 27.5138 8.43104 29.1099C11.1956 30.706 16.8255 26.1304 21.0057 18.8899C25.186 11.6495 26.3337 4.48601 23.5692 2.8899C20.8046 1.2938 15.1747 5.86944 10.9945 13.1099Z" stroke="#1B9AAA" stroke-width="1.03214"/>
<path d="M16 18.8212C17.5581 18.8212 18.8212 17.5581 18.8212 16C18.8212 14.4419 17.5581 13.1788 16 13.1788C14.4419 13.1788 13.1788 14.4419 13.1788 16C13.1788 17.5581 14.4419 18.8212 16 18.8212Z" fill="#1B9AAA"/>
</g>
<defs>
<clipPath id="clip0_21_278">
<rect width="32" height="32" fill="white"/>
</clipPath>
</defs>
</svg>
