<svg width="32" height="32" viewBox="0 0 32 32" fill="none" xmlns="http://www.w3.org/2000/svg">
<g clip-path="url(#clip0_21_348)">
<path fill-rule="evenodd" clip-rule="evenodd" d="M1.16869 0H29.9963C30.6418 0 31.165 0.537258 31.165 1.2V30.8C31.165 31.4628 30.6418 32 29.9963 32H1.16869C0.523239 32 0 31.4628 0 30.8V1.2C0 0.537258 0.523239 0 1.16869 0ZM17.3244 17.0245V14.4H6.233V17.0245H10.1928V28.7102H13.3452V17.0245H17.3244ZM18.5812 28.4016C19.0895 28.6677 19.6908 28.8673 20.3848 29.0004C21.079 29.1334 21.8105 29.2 22.5796 29.2C23.3291 29.2 24.041 29.1268 24.7156 28.9804C25.3901 28.8341 25.9815 28.5929 26.4898 28.2569C26.9982 27.9209 27.4007 27.4818 27.6972 26.9396C27.9937 26.3973 28.142 25.727 28.142 24.9286C28.142 24.3498 28.0572 23.8426 27.8878 23.4068C27.7184 22.971 27.474 22.5834 27.1546 22.2441C26.8353 21.9047 26.4524 21.6004 26.0059 21.331C25.5595 21.0615 25.0561 20.807 24.4956 20.5675C24.085 20.3945 23.7167 20.2265 23.3909 20.0635C23.065 19.9006 22.788 19.7342 22.56 19.5646C22.3319 19.3948 22.156 19.2153 22.0321 19.0256C21.9083 18.8361 21.8464 18.6214 21.8464 18.3819C21.8464 18.1623 21.9017 17.9644 22.0126 17.7882C22.1234 17.6118 22.2797 17.4604 22.4818 17.334C22.6839 17.2076 22.9314 17.1095 23.2248 17.0396C23.518 16.9698 23.8439 16.9349 24.2023 16.9349C24.4631 16.9349 24.7384 16.9548 25.0284 16.9947C25.3184 17.0347 25.6101 17.0962 25.9033 17.1793C26.1966 17.2625 26.4818 17.3673 26.7588 17.4938C27.0357 17.6202 27.2915 17.7665 27.5262 17.9328V14.9489C27.0503 14.7626 26.5306 14.6245 25.9668 14.5348C25.4031 14.4449 24.7563 14.4 24.0263 14.4C23.2834 14.4 22.5796 14.4815 21.9148 14.6446C21.25 14.8075 20.6651 15.062 20.16 15.408C19.6549 15.754 19.2557 16.1947 18.9625 16.7302C18.6692 17.2658 18.5225 17.9062 18.5225 18.6513C18.5225 19.6028 18.7913 20.4145 19.3291 21.0864C19.8668 21.7584 20.683 22.3273 21.7779 22.793C22.2081 22.9727 22.6088 23.1489 22.9804 23.322C23.3518 23.4949 23.6728 23.6746 23.9432 23.8608C24.2137 24.0471 24.4271 24.25 24.5836 24.4695C24.74 24.6891 24.8183 24.9386 24.8183 25.2181C24.8183 25.4244 24.7693 25.6156 24.6715 25.7919C24.5737 25.9682 24.4255 26.1212 24.2267 26.251C24.028 26.3807 23.7804 26.4822 23.4839 26.5553C23.1873 26.6286 22.8402 26.6651 22.4427 26.6651C21.7649 26.6651 21.0936 26.5438 20.4288 26.3009C19.7641 26.0581 19.1482 25.6938 18.5812 25.2081V28.4016Z" fill="#1B9AAA"/>
</g>
<defs>
<clipPath id="clip0_21_348">
<rect width="32" height="32" fill="white"/>
</clipPath>
</defs>
</svg>
